<svg width="214" height="214" viewBox="0 0 214 214" fill="none" xmlns="http://www.w3.org/2000/svg">
<rect width="214" height="214" rx="50" fill="url(#paint0_linear_28_2)"/>
<path d="M161.387 132.394C160.282 132.394 159.387 131.499 159.387 130.394V129.336C159.387 128.232 160.282 127.336 161.387 127.336H170.523C171.627 127.336 172.523 126.441 172.523 125.336V86.7579C172.523 85.6533 171.627 84.7579 170.523 84.7579H161.387C160.282 84.7579 159.387 83.8625 159.387 82.7579V81.6998C159.387 80.5953 160.282 79.6998 161.387 79.6998H190C191.105 79.6998 192 80.5953 192 81.6998V82.7579C192 83.8625 191.105 84.7579 190 84.7579H180.864C179.76 84.7579 178.864 85.6533 178.864 86.7579V125.336C178.864 126.441 179.76 127.336 180.864 127.336H190C191.105 127.336 192 128.232 192 129.336V130.394C192 131.499 191.105 132.394 190 132.394H161.387Z" fill="white"/>
<path d="M118.16 79.6998C119.264 79.6998 120.16 80.5953 120.16 81.6998V111.332C120.16 113.898 120.235 116.188 120.386 118.201C120.537 120.215 120.94 121.951 121.594 123.411C122.248 124.82 123.255 125.902 124.614 126.657C126.023 127.412 127.961 127.789 130.427 127.789C132.893 127.789 134.805 127.412 136.164 126.657C137.574 125.902 138.605 124.82 139.26 123.411C139.914 121.951 140.316 120.215 140.467 118.201C140.618 116.188 140.694 113.898 140.694 111.332V81.6998C140.694 80.5953 141.589 79.6998 142.694 79.6998H145.035C146.14 79.6998 147.035 80.5953 147.035 81.6998V109.822C147.035 113.747 146.834 117.17 146.431 120.089C146.079 123.008 145.299 125.449 144.091 127.412C142.934 129.375 141.248 130.859 139.033 131.866C136.869 132.822 134 133.3 130.427 133.3C126.853 133.3 123.96 132.822 121.745 131.866C119.581 130.859 117.895 129.375 116.687 127.412C115.529 125.449 114.749 123.008 114.347 120.089C113.994 117.17 113.818 113.747 113.818 109.822V81.6998C113.818 80.5953 114.714 79.6998 115.818 79.6998H118.16Z" fill="white"/>
<path d="M71.3066 132.394C70.202 132.394 69.3066 131.499 69.3066 130.394V81.6998C69.3066 80.5953 70.202 79.6998 71.3066 79.6998H88.482C93.3639 79.6998 97.0882 81.0335 99.655 83.701C102.222 86.3684 103.505 90.0928 103.505 94.874C103.505 99.6553 102.222 103.38 99.655 106.047C97.0882 108.714 93.3639 110.048 88.482 110.048H77.6481C76.5435 110.048 75.6481 110.944 75.6481 112.048V130.394C75.6481 131.499 74.7526 132.394 73.6481 132.394H71.3066ZM75.6481 102.537C75.6481 103.642 76.5435 104.537 77.6481 104.537H88.331C90.9984 104.537 93.0619 103.883 94.5214 102.574C96.0313 101.215 96.7862 99.303 96.7862 96.8368V92.9112C96.7862 90.4451 96.0313 88.5577 94.5214 87.2492C93.0619 85.8903 90.9984 85.2109 88.331 85.2109H77.6481C76.5435 85.2109 75.6481 86.1063 75.6481 87.2109V102.537Z" fill="white"/>
<path d="M51.5951 105.972V89.6489C51.5951 89.4493 51.4333 89.2875 51.2337 89.2875C51.087 89.2875 50.9549 89.3762 50.8993 89.512L41.7445 111.87C41.0663 113.526 38.7209 113.526 38.0428 111.87L28.888 89.512C28.8324 89.3762 28.7003 89.2875 28.5536 89.2875C28.354 89.2875 28.1921 89.4493 28.1921 89.6489V105.972V130.394C28.1921 131.499 27.2967 132.394 26.1921 132.394H24.3791C23.2746 132.394 22.3792 131.499 22.3792 130.394V81.6998C22.3792 80.5953 23.2746 79.6998 24.3792 79.6998H29.1776C29.9958 79.6998 30.7315 80.1982 31.0349 80.9581L39.7341 102.741C39.7849 102.869 39.9079 102.952 40.0446 102.952C40.1814 102.952 40.3044 102.869 40.3551 102.741L49.0543 80.9581C49.3578 80.1982 50.0935 79.6998 50.9117 79.6998H55.4081C56.5127 79.6998 57.4081 80.5953 57.4081 81.6998V130.394C57.4081 131.499 56.5127 132.394 55.4081 132.394H53.5951C52.4906 132.394 51.5951 131.499 51.5951 130.394V105.972Z" fill="white"/>
<defs>
<linearGradient id="paint0_linear_28_2" x1="214" y1="214" x2="0" y2="0" gradientUnits="userSpaceOnUse">
<stop stop-color="#DEB100"/>
<stop offset="1" stop-color="#D400B8"/>
</linearGradient>
</defs>
</svg>
